#!OML:ASF X:\für Bonn\!DataBase\2005_08_10_Bjorn_Final\c3d\bjorn.ASF
:FULLY-SPECIFIED
:DEGREES
167
root -27.6299 18.4118 -7.39581 -1436.49 11.6312 -8.86007
lowerback 3.0918 5.26919 9.35135
upperback 7.46227 6.88105 2.60311
thorax 6.94184 3.89075 -2.17031
lowerneck -2.9152 5.96641 3.73172
upperneck 1.09557 8.15743 -11.4829
head 1.58285 3.97451 -4.22841
rclavicle 9.85972e-014 2.22639e-014
rhumerus -23.185 23.6918 -100.105
rradius 89.9487
rwrist -0.862969
rhand -28.2065 30.8034
rfingers 7.12502
rthumb -1.58534 0.829505
lclavicle 9.85972e-014 2.22639e-014
lhumerus -59.5787 -19.8965 102.105
lradius 81.9623
lwrist -11.4242
lhand -39.7269 -20.1353
lfingers 7.12502
lthumb -12.7045 9.45829
rfemur 6.9506 -1.80166 14.423
rtibia 24.4459
rfoot -6.46735 20.6792
rtoes -4.67304
lfemur -43.5859 5.44679 -21.7712
ltibia 65.1998
lfoot -14.1767 2.13166
ltoes -9.21048
168
root -27.5143 18.5022 -7.13926 -1436.49 12.1183 -8.75846
lowerback 2.74417 5.43281 9.16369
upperback 7.40284 7.07515 2.43656
thorax 7.09416 3.98362 -2.19742
lowerneck -2.59313 5.79905 3.51808
upperneck 1.01098 7.91563 -11.0151
head 1.4395 3.8685 -4.04088
rclavicle -2.90226e-014 7.55382e-015
rhumerus -23.7351 24.5901 -100.635
rradius 90.767
rwrist -1.5737
rhand -27.3015 30.8112
rfingers 7.12502
rthumb -0.711258 0.832663
lclavicle -2.90226e-014 7.55382e-015
lhumerus -59.8879 -19.8773 101.791
lradius 81.8828
lwrist -11.7579
lhand -40.4007 -20.123
lfingers 7.12502
lthumb -13.354 9.42906
rfemur 8.19179 -1.84061 14.0642
rtibia 23.3334
rfoot -3.14484 19.7729
rtoes -5.93888
lfemur -43.3209 5.62575 -22.5081
ltibia 62.0119
lfoot -13.513 1.57468
ltoes -7.75428
169
root -27.4047 18.559 -6.88423 -1436.5 12.5792 -8.69479
lowerback 2.37575 5.58443 8.98607
upperback 7.35234 7.25189 2.27675
thorax 7.26709 4.06862 -2.21918
lowerneck -2.27523 5.66055 3.24142
upperneck 0.915256 7.71089 -10.4498
head 1.29118 3.78066 -3.80676
rclavicle -5.04913e-014 4.77083e-015
rhumerus -24.3035 25.4337 -101.17
rradius 91.4118
rwrist -1.70545
rhand -26.4754 30.5684
rfingers 7.12502
rthumb 0.0865605 0.588668
lclavicle -5.04913e-014 4.77083e-015
lhumerus -60.0941 -19.8755 101.518
lradius 81.8428
lwrist -11.892
lhand -41.0412 -20.0764
lfingers 7.12502
lthumb -13.9713 9.43419
rfemur 9.197 -1.8275 13.7377
rtibia 22.5802
rfoot -0.10637 18.9005
rtoes -9.07723
lfemur -43.07 5.87414 -23.2085
ltibia 58.9419
lfoot -12.9141 1.08879
ltoes -7.1755
170
root -27.2893 18.6379 -6.62437 -1436.5 13.0244 -8.64007
lowerback 2.04488 5.7396 8.78869
upperback 7.24991 7.44275 2.10677
thorax 7.36181 4.15595 -2.24714
lowerneck -1.91903 5.50877 3.12842
upperneck 0.917755 7.49672 -10.0179
head 1.18489 3.68526 -3.65215
rclavicle 7.63333e-014 1.23246e-014
rhumerus -25.0808 26.1872 -101.719
rradius 91.9318
rwrist -1.24674
rhand -25.9864 30.1885
rfingers 7.12502
rthumb 0.558904 0.209506
lclavicle 7.63333e-014 1.23246e-014
lhumerus -60.255 -19.9616 101.313
lradius 81.8256
lwrist -11.7598
lhand -41.5637 -20.0024
lfingers 7.12502
lthumb -14.4748 9.47269
rfemur 9.94171 -1.75601 13.4369
rtibia 22.2087
rfoot 2.58489 18.2333
rtoes -12.8251
lfemur -42.5902 6.21302 -23.9104
ltibia 55.8402
lfoot -12.2836 0.681098
ltoes -6.82022
171
root -27.1752 18.7088 -6.36406 -1436.55 13.4637 -8.63397
lowerback 1.78664 5.88962 8.64092
upperback 7.12082 7.63688 1.92023
thorax 7.39627 4.24637 -2.32747
lowerneck -1.50174 5.33931 3.21502
upperneck 0.978698 7.26439 -9.74392
head 1.10389 3.57995 -3.59179
rclavicle 4.94974e-014 8.34896e-015
rhumerus -26.0054 26.8196 -102.322
rradius 92.3202
rwrist -0.558637
rhand -25.7069 29.9744
rfingers 7.12502
rthumb 0.828825 -0.00371916
lclavicle 4.94974e-014 8.34896e-015
lhumerus -60.4282 -20.139 101.125
lradius 81.8534
lwrist -11.4503
lhand -41.9813 -20.008
lfingers 7.12502
lthumb -14.8772 9.43781
rfemur 10.4596 -1.68443 13.1785
rtibia 22.306
rfoot 4.88873 17.9634
rtoes -17.066
lfemur -41.9827 6.62854 -24.5496
ltibia 52.8827
lfoot -11.5192 0.304688
ltoes -5.50123
172
root -27.0616 18.7681 -6.10612 -1436.62 13.9174 -8.64408
lowerback 1.52566 6.01288 8.47525
upperback 7.01205 7.79414 1.75616
thorax 7.44444 4.31758 -2.37496
lowerneck -1.08456 5.16545 3.37799
upperneck 1.01686 7.02896 -9.60947
head 1.02587 3.47289 -3.59388
rclavicle 6.42074e-014 6.36111e-015
rhumerus -26.933 27.4111 -102.859
rradius 92.4518
rwrist 0.241792
rhand -25.6315 30.2372
rfingers 7.12502
rthumb 0.901695 0.259319
lclavicle 6.42074e-014 6.36111e-015
lhumerus -60.5466 -20.2669 100.979
lradius 81.9083
lwrist -11.0616
lhand -42.3081 -20.0773
lfingers 7.12502
lthumb -15.1919 9.34496
rfemur 10.8307 -1.62211 12.9299
rtibia 22.7027
rfoot 6.95966 17.9538
rtoes -21.2289
lfemur -41.2845 7.09211 -25.1652
ltibia 50.057
lfoot -10.7238 -0.00066783
ltoes -3.8712
173
root -26.9448 18.8162 -5.8486 -1436.71 14.3516 -8.67687
lowerback 1.28003 6.12685 8.35731
upperback 6.88863 7.94122 1.58265
thorax 7.47599 4.38614 -2.46042
lowerneck -0.606116 5.00272 3.47232
upperneck 1.009 6.80581 -9.37632
head 0.915922 3.37422 -3.54997
rclavicle 1.87852e-014 -1.25234e-014
rhumerus -27.9094 27.9605 -103.36
rradius 92.3819
rwrist 1.16676
rhand -25.802 30.7204
rfingers 7.12502
rthumb 0.737003 0.74193
lclavicle 1.87852e-014 -1.25234e-014
lhumerus -60.6805 -20.3858 100.843
lradius 81.9783
lwrist -10.7317
lhand -42.5222 -20.0105
lfingers 7.12502
lthumb -15.3982 9.39608
rfemur 10.9526 -1.52398 12.6991
rtibia 23.5874
rfoot 8.66806 18.2697
rtoes -25.1361
lfemur -40.5206 7.55643 -25.728
ltibia 47.4836
lfoot -10.0971 -0.278907
ltoes -2.89257
174
root -26.8275 18.8457 -5.59294 -1436.83 14.8051 -8.75636
lowerback 1.04519 6.20511 8.28578
upperback 6.79446 8.03818 1.43849
thorax 7.53079 4.4331 -2.54247
lowerneck -0.126999 4.86455 3.47544
upperneck 0.898271 6.61026 -9.10301
head 0.77035 3.2906 -3.47498
rclavicle 1.07543e-013 8.15017e-015
rhumerus -28.8437 28.5606 -103.802
rradius 92.1019
rwrist 1.97887
rhand -26.105 31.2547
rfingers 7.12502
rthumb 0.444335 1.27538
lclavicle 1.07543e-013 8.15017e-015
lhumerus -60.6719 -20.4342 100.709
lradius 82.0059
lwrist -10.4246
lhand -42.5075 -20.017
lfingers 7.12502
lthumb -15.384 9.39065
rfemur 10.878 -1.46454 12.4843
rtibia 24.9331
rfoot 9.98767 18.7214
rtoes -28.2921
lfemur -39.7313 8.12526 -26.3102
ltibia 45.2062
lfoot -9.65309 -0.472238
ltoes -3.67415
175
root -26.708 18.86 -5.33742 -1436.96 15.2391 -8.88619
lowerback 0.762769 6.28 8.279
upperback 6.70889 8.12438 1.29111
thorax 7.63286 4.47977 -2.65573
lowerneck 0.382537 4.73781 3.48945
upperneck 0.705448 6.42539 -8.76835
head 0.593259 3.21358 -3.38245
rclavicle -5.71009e-014 -9.74045e-015
rhumerus -29.7918 29.1199 -104.243
rradius 91.6856
rwrist 2.6249
rhand -26.4831 31.7226
rfingers 7.12502
rthumb 0.0791962 1.74284
lclavicle -5.71009e-014 -9.74045e-015
lhumerus -60.5011 -20.5318 100.547
lradius 81.9917
lwrist -10.1038
lhand -42.1285 -20.342
lfingers 7.12502
lthumb -15.019 9.09327
rfemur 10.6069 -1.44064 12.2729
rtibia 26.6415
rfoot 10.6202 19.2954
rtoes -31.5359
lfemur -38.9876 8.63603 -26.8024
ltibia 43.2471
lfoot -9.35432 -0.623147
ltoes -4.07708
176
root -26.5875 18.8617 -5.08437 -1437.11 15.7009 -9.03059
lowerback 0.504851 6.31417 8.30109
upperback 6.63608 8.15747 1.13966
thorax 7.7341 4.50274 -2.7953
lowerneck 0.864374 4.64146 3.45754
upperneck 0.452476 6.27849 -8.36167
head 0.401735 3.15431 -3.25648
rclavicle -7.55133e-014 -1.27719e-014
rhumerus -30.742 29.6139 -104.694
rradius 91.2135
rwrist 3.11729
rhand -26.564 32.0341
rfingers 7.12502
rthumb 0.00105015 2.05431
lclavicle -7.55133e-014 -1.27719e-014
lhumerus -60.2286 -20.5596 100.351
lradius 82.0175
lwrist -9.8387
lhand -41.4787 -20.9985
lfingers 7.12502
lthumb -14.3929 8.48248
rfemur 10.2136 -1.45547 12.0569
rtibia 28.6069
rfoot 10.5909 19.8525
rtoes -34.4552
lfemur -38.2551 9.08699 -27.231
ltibia 41.6246
lfoot -9.23123 -0.651788
ltoes -4.23645
177
root -26.4643 18.8557 -4.83192 -1437.28 16.1604 -9.16376
lowerback 0.248982 6.33909 8.34342
upperback 6.6069 8.17833 0.955473
thorax 7.88952 4.52501 -2.97732
lowerneck 1.23984 4.55757 3.50933
upperneck 0.190824 6.15034 -7.94737
head 0.231632 3.10063 -3.1412
rclavicle -7.15501e-014 -1.26228e-014
rhumerus -31.6394 29.7773 -105.179
rradius 90.656
rwrist 3.61977
rhand -26.6734 32.0479
rfingers 7.12502
rthumb -0.104618 2.06817
lclavicle -7.15501e-014 -1.26228e-014
lhumerus -59.9307 -20.6525 100.102
lradius 82.1867
lwrist -9.51561
lhand -40.9657 -21.7484
lfingers 7.12502
lthumb -13.8985 7.76713
rfemur 9.77846 -1.42365 11.8227
rtibia 30.7156
rfoot 10.3472 20.1619
rtoes -35.8395
lfemur -37.5007 9.56263 -27.6385
ltibia 40.3492
lfoot -9.29893 -0.585355
ltoes -4.46499
178
root -26.3394 18.8429 -4.5807 -1437.49 16.6314 -9.28298
lowerback 0.034818 6.32497 8.341
upperback 6.59681 8.15119 0.787767
thorax 8.02565 4.5209 -3.12782
lowerneck 1.61988 4.50732 3.51418
upperneck -0.142673 6.0665 -7.51366
head 0.0399307 3.06844 -3.01251
rclavicle 1.6524e-014 -1.20265e-014
rhumerus -32.5579 29.736 -105.655
rradius 90.0975
rwrist 4.26052
rhand -26.5078 31.856
rfingers 7.12502
rthumb 0.0552762 1.87622
lclavicle 1.6524e-014 -1.20265e-014
lhumerus -59.6346 -20.6383 99.8675
lradius 82.4576
lwrist -9.25793
lhand -40.7601 -22.4828
lfingers 7.12502
lthumb -13.7005 7.04622
rfemur 9.33453 -1.33671 11.5921
rtibia 32.908
rfoot 9.93439 20.1419
rtoes -36.1611
lfemur -36.7061 9.99959 -27.9803
ltibia 39.4455
lfoot -9.51331 -0.577171
ltoes -4.2392
179
root -26.2117 18.8195 -4.33135 -1437.79 17.1338 -9.44517
lowerback -0.0995237 6.29491 8.44549
upperback 6.61853 8.10784 0.584048
thorax 8.17198 4.51908 -3.38191
lowerneck 1.93586 4.47006 3.6068
upperneck -0.509529 6.00342 -7.0548
head -0.146765 3.04354 -2.8914
rclavicle 6.16729e-014 -1.39149e-015
rhumerus -33.4172 29.3955 -106.21
rradius 89.6036
rwrist 4.80381
rhand -26.049 31.4516
rfingers 7.12502
rthumb 0.498436 1.47241
lclavicle 6.16729e-014 -1.39149e-015
lhumerus -59.2785 -20.6898 99.5392
lradius 82.7877
lwrist -9.17647
lhand -40.7251 -23.042
lfingers 7.12502
lthumb -13.6667 6.48927
rfemur 8.94185 -1.29602 11.3686
rtibia 35.158
rfoot 9.51071 19.8812
rtoes -35.2384
lfemur -35.842 10.3488 -28.1988
ltibia 38.9251
lfoot -9.65341 -0.643008
ltoes -3.50679
